<svg data-v-423bf9ae="" xmlns="http://www.w3.org/2000/svg" viewBox="0 0 417 90" class="iconLeft"><!----><!----><!----><g data-v-423bf9ae="" id="480ab417-b2cf-4fae-a6e6-e2b87fece42a" fill="#1E2314" transform="matrix(4.773269805623416,0,0,4.773269805623416,105.65632636650827,6.980906169483944)"><path d="M6.64 7.29C6.64 6.05 7.49 5.32 8.53 5.32C9.51 5.32 10.26 6.10 10.26 7.28L10.26 11.48L11.31 11.48L11.31 7.25C11.31 5.49 10.07 4.37 8.72 4.37C7.34 4.37 6.59 5.31 6.31 5.78C5.87 4.89 5.01 4.37 4.09 4.37C2.95 4.37 2.28 4.98 1.96 5.54L1.96 4.48L0.91 4.48L0.91 11.48L1.96 11.48L1.96 7.29C1.96 6.05 2.81 5.32 3.85 5.32C4.83 5.32 5.59 6.10 5.59 7.28L5.59 11.48L6.64 11.48ZM18.89 4.48L17.74 4.48L15.44 10.22L13.19 4.48L12.03 4.48L14.88 11.38L13.61 14.25L14.74 14.25ZM26.38 4.37C25.21 4.37 24.39 4.86 23.87 5.61L23.87 1.68L22.82 1.68L22.82 11.48L23.87 11.48L23.87 10.36C24.39 11.12 25.21 11.59 26.38 11.59C28.42 11.59 29.76 9.98 29.76 7.98C29.76 5.98 28.42 4.37 26.38 4.37ZM26.24 10.64C24.68 10.64 23.81 9.42 23.81 7.98C23.81 6.54 24.68 5.32 26.24 5.32C27.79 5.32 28.71 6.54 28.71 7.98C28.71 9.42 27.79 10.64 26.24 10.64ZM37.24 11.48L37.24 4.48L36.19 4.48L36.19 8.51C36.19 9.77 35.24 10.64 34.08 10.64C32.93 10.64 32.12 9.80 32.12 8.53L32.12 4.48L31.07 4.48L31.07 8.55C31.07 10.54 32.42 11.59 33.87 11.59C35 11.59 35.69 11.06 36.19 10.39L36.19 11.48ZM42.62 4.37C41.45 4.37 40.63 4.86 40.11 5.61L40.11 1.68L39.06 1.68L39.06 11.48L40.11 11.48L40.11 10.36C40.63 11.12 41.45 11.59 42.62 11.59C44.66 11.59 46.00 9.98 46.00 7.98C46.00 5.98 44.66 4.37 42.62 4.37ZM42.48 10.64C40.92 10.64 40.05 9.42 40.05 7.98C40.05 6.54 40.92 5.32 42.48 5.32C44.03 5.32 44.95 6.54 44.95 7.98C44.95 9.42 44.03 10.64 42.48 10.64ZM50.93 4.37C49.77 4.37 48.94 4.86 48.43 5.61L48.43 1.68L47.38 1.68L47.38 11.48L48.43 11.48L48.43 10.36C48.94 11.12 49.77 11.59 50.93 11.59C52.98 11.59 54.32 9.98 54.32 7.98C54.32 5.98 52.98 4.37 50.93 4.37ZM50.79 10.64C49.24 10.64 48.37 9.42 48.37 7.98C48.37 6.54 49.24 5.32 50.79 5.32C52.35 5.32 53.27 6.54 53.27 7.98C53.27 9.42 52.35 10.64 50.79 10.64ZM56.74 1.68L55.69 1.68L55.69 11.48L56.74 11.48ZM61.68 10.64C60.27 10.64 59.36 9.65 59.21 8.40L65.07 8.40L65.07 7.98C65.07 5.98 63.74 4.37 61.60 4.37C59.46 4.37 58.13 5.98 58.13 7.98C58.13 9.98 59.53 11.59 61.67 11.59C63.34 11.59 64.37 10.72 64.86 9.46L63.71 9.46C63.34 10.16 62.66 10.64 61.68 10.64ZM61.60 5.32C62.94 5.32 63.78 6.23 63.98 7.42L59.22 7.42C59.42 6.23 60.26 5.32 61.60 5.32Z"></path></g><!----><g data-v-423bf9ae="" id="aa585fdc-f3ec-4a41-824e-821eb21de375" transform="matrix(1,0,0,1,-5,-4)" stroke="none" fill="#1E2314"><path d="M47.8 13.1c7.6 14.8 21.8 25.2 38.1 28.1C86.6 44 87 47 87 50c0 20.4-16.6 37-37 37S13 70.4 13 50c0-19.7 15.4-35.8 34.8-36.9M50 5C25.1 5 5 25.1 5 50s20.1 45 45 45 45-20.1 45-45c0-5.7-1.1-11.2-3-16.2-17.8-1.2-32.8-12.7-39-28.7-1-.1-2-.1-3-.1z"></path><path d="M30 34c-2.5 0-4.5 2-4.5 4.5s2 4.5 4.5 4.5 4.5-2 4.5-4.5-2-4.5-4.5-4.5zM39 45c-2.5 0-4.5 2-4.5 4.5s2 4.5 4.5 4.5 4.5-2 4.5-4.5-2-4.5-4.5-4.5zM28.1 46.9c-1.4 0-2.6 1.2-2.6 2.6s1.2 2.6 2.6 2.6 2.6-1.2 2.6-2.6-1.2-2.6-2.6-2.6z"></path></g><!----></svg>